<?xml version="1.0" encoding="UTF-8"?>
<svg version="1.1" width="2048px" height="2048px" viewBox="0 0 2048.0 2048.0"
    xmlns="http://www.w3.org/2000/svg"
    xmlns:xlink="http://www.w3.org/1999/xlink">
    <defs>
        <clipPath id="9811150116113951105257100">
            <path d="M2048,0 L2048,2048 L0,2048 L0,0 L2048,0 Z"></path>
        </clipPath>
        <clipPath id="10956505155122114579755">
            <path d=""></path>
        </clipPath>
        <clipPath id="451075510011945531121130">
            <path d="M1389.13342,-2.23379221e-18 C1393.74912,15.3869695 1402.59857,28.9382566 1414.3311,39.3001907 L1407.70253,52.7694446 C1118.88179,639.231105 926.901818,983.96085 831.762598,1086.95868 C684.640094,1246.23367 455.137598,1278.50555 219.340723,1170.9743 C-16.4561517,1063.44305 -82.8624017,615.707911 122.981348,333.583679 C257.354471,149.415278 679.405163,38.2207188 1389.13342,-2.23379221e-18 Z M717.575098,228.568054 C682.228874,228.568054 653.575098,257.22183 653.575098,292.568054 C653.575098,327.914278 682.228874,356.568054 717.575098,356.568054 C752.921322,356.568054 781.575098,327.914278 781.575098,292.568054 C781.575098,257.22183 752.921322,228.568054 717.575098,228.568054 Z"></path>
        </clipPath>
        <clipPath id="11052501135210153100980">
            <path d="M294.992593,0 C311.678931,0 328.041683,1.42774032 343.972093,4.17114492 C313.412478,56.1393471 295.985185,116.121327 295.985185,180 C295.985185,230.730441 306.976646,279.003222 326.804092,322.754834 C282.58983,351.70362 248.119488,383.123982 223.391435,417.015625 C189.974221,462.816412 163.732191,512.981896 144.225253,565.347918 L144.235618,565.357545 C57.8634081,512.333036 0,415.130211 0,304 C0,136.105436 132.072682,0 294.992593,0 Z"></path>
        </clipPath>
        <clipPath id="1135210610212157049108114">
            <path d="M27.177,431.624 L27.1811004,431.634464 C9.73566816,392.824804 0,349.584061 0,304 C0,136.105436 132.072682,0 294.992593,0 C444.813782,0 568.548563,115.099551 587.476592,264.174637 L587.452834,264.169772 C338.890069,303.280782 153.360036,358.381014 30.8627365,429.470469 L27.177,431.624 Z"></path>
        </clipPath>
        <clipPath id="1221191021081051031225611355">
            <path d="M64,0 C99.346224,0 128,28.653776 128,64 C128,99.346224 99.346224,128 64,128 C28.653776,128 0,99.346224 0,64 C0,28.653776 28.653776,0 64,0 Z"></path>
        </clipPath>
    </defs>
    <g clip-path="url(#9811150116113951105257100)">
        <g transform="translate(1516.0 1832.0)">
            <g clip-path="url(#10956505155122114579755)">
                <polygon points="2,2 346,2 346,2 2,2 2,2" stroke="none" fill="#D7D7D7"></polygon>
            </g>
            <path d="M2,2 L346,2" stroke="#DDDDDD" stroke-width="20" fill="none" stroke-linecap="round" stroke-linejoin="round"></path>
        </g>
        <g transform="translate(218.4249016502731 599.4319460936746)">
            <g clip-path="url(#451075510011945531121130)">
                <polygon points="2.84217094e-14,-2.23379221e-18 1414.3311,-2.23379221e-18 1414.3311,1233.75402 2.84217094e-14,1233.75402 2.84217094e-14,-2.23379221e-18" stroke="none" fill="#DCDCDC"></polygon>
            </g>
            <path d="M1389.13342,-2.23379221e-18 C1393.74912,15.3869695 1402.59857,28.9382566 1414.3311,39.3001907 L1407.70253,52.7694446 C1118.88179,639.231105 926.901818,983.96085 831.762598,1086.95868 C684.640094,1246.23367 455.137598,1278.50555 219.340723,1170.9743 C-16.4561517,1063.44305 -82.8624017,615.707911 122.981348,333.583679 C257.354471,149.415278 679.405163,38.2207188 1389.13342,-2.23379221e-18 Z M717.575098,228.568054 C682.228874,228.568054 653.575098,257.22183 653.575098,292.568054 C653.575098,327.914278 682.228874,356.568054 717.575098,356.568054 C752.921322,356.568054 781.575098,327.914278 781.575098,292.568054 C781.575098,257.22183 752.921322,228.568054 717.575098,228.568054 Z" stroke="#FFFFFF" stroke-width="1" fill="none" stroke-miterlimit="10"></path>
        </g>
        <g transform="translate(58.0148148148146 472.0)">
            <g clip-path="url(#11052501135210153100980)">
                <polygon points="0,0 343.972093,0 343.972093,565.357545 0,565.357545 0,0" stroke="none" fill="#DCDCDC"></polygon>
            </g>
            <path d="M294.992593,0 C311.678931,0 328.041683,1.42774032 343.972093,4.17114492 C313.412478,56.1393471 295.985185,116.121327 295.985185,180 C295.985185,230.730441 306.976646,279.003222 326.804092,322.754834 C282.58983,351.70362 248.119488,383.123982 223.391435,417.015625 C189.974221,462.816412 163.732191,512.981896 144.225253,565.347918 L144.235618,565.357545 C57.8634081,512.333036 0,415.130211 0,304 C0,136.105436 132.072682,0 294.992593,0 Z" stroke="#FFFFFF" stroke-width="1" fill="none" stroke-miterlimit="10"></path>
        </g>
        <g transform="translate(386.01481481481466 348.0)">
            <g clip-path="url(#1135210610212157049108114)">
                <polygon points="0,0 587.476592,0 587.476592,431.634464 0,431.634464 0,0" stroke="none" fill="#DCDCDC"></polygon>
            </g>
        </g>
        <g transform="translate(1625.0 511.0)">
            <g clip-path="url(#1221191021081051031225611355)">
                <polygon points="0,0 128,0 128,128 0,128 0,0" stroke="none" fill="#DDDDDD"></polygon>
            </g>
        </g>
        <g transform="translate(1162.390625 99.140625)">
            <g clip-path="url(#10956505155122114579755)">
                <polygon points="0,0 207.609375,0 207.609375,438.859375 0,438.859375 0,0" stroke="none" fill="#D7D7D7"></polygon>
            </g>
            <path d="M207.609375,438.859375 L0,0" stroke="#DDDDDD" stroke-width="20" fill="none" stroke-linecap="round" stroke-miterlimit="10"></path>
        </g>
        <g transform="translate(1650.390625 751.140625)">
            <g clip-path="url(#10956505155122114579755)">
                <polygon points="3.609375,2.859375 315.609375,2.859375 315.609375,286.859375 3.609375,286.859375 3.609375,2.859375" stroke="none" fill="#D7D7D7"></polygon>
            </g>
            <path d="M315.609375,286.859375 L3.609375,2.859375" stroke="#DDDDDD" stroke-width="20" fill="none" stroke-linecap="round" stroke-miterlimit="10"></path>
        </g>
        <g transform="translate(1578.390625 855.140625)">
            <g clip-path="url(#10956505155122114579755)">
                <polygon points="3.609375,2.859375 283.609375,2.859375 283.609375,410.859375 3.609375,410.859375 3.609375,2.859375" stroke="none" fill="#D7D7D7"></polygon>
            </g>
            <path d="M283.609375,410.859375 L3.609375,2.859375" stroke="#DDDDDD" stroke-width="20" fill="none" stroke-linecap="round" stroke-miterlimit="10"></path>
        </g>
        <g transform="translate(1418.390625 95.140625)">
            <g clip-path="url(#10956505155122114579755)">
                <polygon points="3.609375,2.859375 87.609375,2.859375 87.609375,442.859375 3.609375,442.859375 3.609375,2.859375" stroke="none" fill="#D7D7D7"></polygon>
            </g>
            <path d="M87.609375,442.859375 L3.609375,2.859375" stroke="#DDDDDD" stroke-width="20" fill="none" stroke-linecap="round" stroke-miterlimit="10"></path>
        </g>
        <g transform="translate(1342.0 1486.78125)">
            <path d="M0,330.404715 L164,172.859375 L0,0" stroke="#DDDDDD" stroke-width="20" fill="none" stroke-linecap="round" stroke-linejoin="round"></path>
        </g>
    </g>
</svg>